<svg id="ff41f38c-6ef4-4d72-b305-d437d63a9edd" xmlns="http://www.w3.org/2000/svg" viewBox="0 0 819.08 584"><defs><style>.cls-1{fill:#f1f1f1;}.cls-2{fill:#fff;}.cls-3{fill:#3f3d56;}.cls-4{fill:#00b437;}.cls-5{opacity:0.1;isolation:isolate;}.cls-6{fill:#cacaca;}.cls-7{fill:#ffb8b8;}.cls-8{fill:#2f2e41;}.cls-9{fill:#00b41e;}</style></defs><title>img-yo</title><path class="cls-1" d="M747.9,525.36c7.19,12.7,1.09,55.58,1.09,55.58s-39.89-16.88-47.07-29.57a26.41,26.41,0,1,1,46-26Z" transform="translate(0.01 0)"/><path class="cls-2" d="M749.57,580.89l-.85.18c-8.16-38.78-36.66-65.08-37-65.34l.59-.64C712.64,515.35,741.35,541.83,749.57,580.89Z" transform="translate(0.01 0)"/><path class="cls-1" d="M813.17,539.82c-9.74,17.68-64.7,41.64-64.7,41.64s-9.06-59.27.68-76.94a36.55,36.55,0,1,1,64,35.3Z" transform="translate(0.01 0)"/><path class="cls-2" d="M749,582.1l-.82-.87c39.77-37.77,50.06-90.45,50.16-91l1.18.22C799.37,491,789,544.06,749,582.1Z" transform="translate(0.01 0)"/><path class="cls-3" d="M192.57,405.92a75.1,75.1,0,0,1-18.64-2.41l-1.2-.33-1.12-.56c-40.24-20.18-74.19-46.83-100.9-79.21a299.75,299.75,0,0,1-50.95-90.47A347.93,347.93,0,0,1,.07,110.27c0-.87,0-1.55,0-2C.1,88,11.36,70.16,28.79,62.9,42.13,57.34,163.24,7.59,172,4c16.49-8.26,34.07-1.36,36.88-.16,6.31,2.58,118.28,48.38,142.47,59.9,24.94,11.87,31.59,33.2,31.59,43.93,0,48.59-8.42,94-25,135a312.46,312.46,0,0,1-56.16,90.51c-45.85,51.6-91.71,69.89-92.15,70.05A50.39,50.39,0,0,1,192.57,405.92Zm-10.79-26.71c4,.89,13.13,2.22,19.1.05,7.58-2.77,46-22.67,81.83-63,49.55-55.77,74.7-125.88,74.74-208.38-.09-1.67-1.28-13.59-17.07-21.11-23.72-11.29-140.1-58.88-141.27-59.36l-.32-.14c-2.44-1-10.2-3.17-15.55-.37l-1.08.5c-1.29.54-129.86,53.34-143.57,59.05-9.59,4-13,13.9-13,21.83,0,.58,0,1.43,0,2.52C24.45,167.21,37.51,306.11,181.78,379.21Z" transform="translate(0.01 0)"/><path class="cls-4" d="M177.32,15.59S47.59,68.87,33.69,74.66,12.84,94.35,12.84,108.25s-10.43,195.28,164.48,283c0,0,15.88,4.39,27.92,0s165-78.53,165-283.56c0,0,0-20.85-24.33-32.43S203.93,15.59,203.93,15.59,189.49,9.22,177.32,15.59Z" transform="translate(0.01 0)"/><path class="cls-5" d="M191.22,57.29V341.54s-130.89-63-129.73-228.65Z" transform="translate(0.01 0)"/><polygon class="cls-2" points="192.94 261.58 151.24 207.97 175.49 189.11 195.23 214.49 261.93 144.09 284.23 165.22 192.94 261.58"/><path class="cls-6" d="M818.07,584h-381a1,1,0,1,1,0-2h381a1,1,0,1,1,0,2Z" transform="translate(0.01 0)"/><polygon class="cls-7" points="547.21 568.24 562.68 568.24 570.03 508.58 547.21 508.58 547.21 568.24"/><path class="cls-8" d="M543.26,563.19h30.46a19.41,19.41,0,0,1,19.41,19.41v.63H543.26Z" transform="translate(0.01 0)"/><polygon class="cls-7" points="599.21 568.24 614.68 568.24 622.03 508.58 599.21 508.58 599.21 568.24"/><path class="cls-8" d="M595.26,563.19h30.46a19.41,19.41,0,0,1,19.41,19.41v.63H595.26Z" transform="translate(0.01 0)"/><polygon class="cls-8" points="571.52 358.75 575.23 548 545.22 546.14 524.4 425.6 517.82 343.41 571.52 358.75"/><path class="cls-8" d="M623,327l4.2,224-35-1-7.56-133.17-13.15-48.22-53.69-25.2,8.76-60.27,78.9-1.1Z" transform="translate(0.01 0)"/><circle class="cls-7" cx="562.68" cy="99.59" r="26.84"/><polygon class="cls-9" points="584.94 137.74 589.05 143.97 600.01 174.65 591.24 294.1 539.74 295.19 533.16 158.21 546.94 141 584.94 137.74"/><path class="cls-8" d="M512.34,161.5l-8.77-1.1s-2.19,1.1-3.29,8.77S486,244.78,486,244.78l17.53,83.29,19.73-26.3-12.06-46,12.06-46Z" transform="translate(0.01 0)"/><polygon class="cls-8" points="624.12 160.4 630.69 160.4 647.13 249.17 631.79 318.2 616.45 293 620.83 265.6 618.64 241.5 610.97 227.25 624.12 160.4"/><path class="cls-8" d="M578.53,99.59l-4.88-1.22S570,77.64,561.46,80.08,531,85,531,75.2,551.7,56.9,563.9,58.12s27.78,5.26,31.71,23.17c6.32,28.72-13,36-13,36l.32-1A16.29,16.29,0,0,0,578.53,99.59Z" transform="translate(0.01 0)"/><path class="cls-8" d="M504.67,160.4l35.06-14.24,8.22-6,24.66,109,11.51-112.33,45.47,23.56-15.34,74.52-2.19,28.49,6.58,23s23,16.44,15.34,34S617.54,339,617.54,339,580.28,304,578.09,295.19s-5.48-24.11-5.48-24.11-18.63,70.14-40.55,69S510.15,316,510.15,316l5.48-24.11,8.76-25.2L520,225.06Z" transform="translate(0.01 0)"/></svg>