<svg id="be4c2388-7845-4faa-a392-000b3bb95634" xmlns="http://www.w3.org/2000/svg" viewBox="0 0 724.72 476.68"><defs><style>.cls-1{fill:#f2f2f2;}.cls-2{fill:#fff;}.cls-3{fill:#3f3d56;}.cls-4{fill:#e6e6e6;}.cls-5{fill:#00d423;}.cls-6{fill:#a0616a;}.cls-7{fill:#2f2e41;}.cls-8{fill:#00d400;}.cls-9{fill:#ccc;}</style></defs><title>yo-2</title><path class="cls-1" d="M708.22,434.55H67.39a16.52,16.52,0,0,1-16.5-16.5V22.89A12.08,12.08,0,0,1,63,10.81H712.43A12.29,12.29,0,0,1,724.72,23.1v395A16.52,16.52,0,0,1,708.22,434.55Z"/><path class="cls-2" d="M687.5,413.72H90.26c-8.76,0-15.88-6.67-15.88-14.87V54.74c0-6.08,5.28-11,11.77-11H691.42c6.6,0,12,5,12,11.2V398.85C703.38,407.05,696.26,413.72,687.5,413.72Z"/><path class="cls-3" d="M724.49,25H50.65v-8.4A16.58,16.58,0,0,1,67.21,0H707.93a16.57,16.57,0,0,1,16.56,16.55Z"/><circle class="cls-2" cx="80.75" cy="12.5" r="4.28"/><circle class="cls-2" cx="97.01" cy="12.5" r="4.28"/><circle class="cls-2" cx="113.27" cy="12.5" r="4.28"/><rect class="cls-4" x="253.84" y="136.38" width="324" height="41.03" rx="20.51"/><rect class="cls-4" x="253.84" y="204.27" width="324" height="41.03" rx="20.51"/><rect class="cls-4" x="253.84" y="272.16" width="324" height="41.03" rx="20.51"/><circle class="cls-4" cx="217.84" cy="224.78" r="21"/><path class="cls-2" d="M225.34,223.34,219,216.48a1.53,1.53,0,0,0-2.16-.08l-.08.08-6.38,6.86a1,1,0,0,0,1.47,1.36h0l5-5.41v13.29a1,1,0,0,0,2,0v-13.3l5,5.42a1,1,0,0,0,1.47-1.36Z"/><circle class="cls-4" cx="217.84" cy="292.67" r="21"/><path class="cls-2" d="M225.34,291.23,219,284.37a1.52,1.52,0,0,0-2.16-.08.3.3,0,0,0-.08.08l-6.38,6.86a1,1,0,0,0,0,1.41,1,1,0,0,0,1.42-.05h0l5-5.41v13.29a1,1,0,0,0,2,0v-13.3l5,5.42a1,1,0,0,0,1.47-1.36Z"/><circle class="cls-5" cx="217.84" cy="156.9" r="21"/><path class="cls-2" d="M225.34,155.45,219,148.59a1.53,1.53,0,0,0-2.16-.08l-.08.08-6.38,6.86a1,1,0,0,0,1.47,1.36h0l5-5.41v13.29a1,1,0,0,0,2,0V151.4l5,5.41a1,1,0,0,0,1.47-1.36Z"/><path class="cls-6" d="M198.15,156.33a10.07,10.07,0,0,0-11,9,10.46,10.46,0,0,0,0,1.77l-32.71,14.4,15.6,10.07,28.67-15.21a10.11,10.11,0,0,0-.57-20.08Z"/><circle class="cls-6" cx="66.22" cy="113.82" r="24.56"/><polygon class="cls-6" points="110.67 464.03 122.93 464.03 128.76 416.74 110.67 416.74 110.67 464.03"/><path class="cls-7" d="M107.54,460h24.14a15.39,15.39,0,0,1,15.39,15.38h0v.5H107.54Z"/><polygon class="cls-6" points="59.67 464.03 71.93 464.03 77.76 416.74 59.66 416.74 59.67 464.03"/><path class="cls-7" d="M56.54,460H80.68a15.39,15.39,0,0,1,15.39,15.38h0v.5H56.54Z"/><path class="cls-7" d="M57.27,452.83a4.49,4.49,0,0,1-1.52-3.36l-.58-177.2,64-2.47h.47l10.53,106.29,1.32,67.71a4.49,4.49,0,0,1-4,4.56L112,450.18a4.5,4.5,0,0,1-5-3.94c0-.12,0-.24,0-.36L104.21,374,90.77,329.16a1.5,1.5,0,0,0-2.85.56L82.69,447.48a4.51,4.51,0,0,1-4,4.24l-17.94,2.2a4.47,4.47,0,0,1-3.53-1.09Z"/><path class="cls-5" d="M53.23,278.56l-19-77c-5.91-24,7.59-48.17,30.1-53.87a38.14,38.14,0,0,1,31.1,5.55A44.09,44.09,0,0,1,114.14,184l12.39,91.19a4.51,4.51,0,0,1-3.85,5.07,3.91,3.91,0,0,1-.49,0L57.71,282H57.6A4.52,4.52,0,0,1,53.23,278.56Z"/><path class="cls-5" d="M132.69,207.4,84.6,184A16.15,16.15,0,1,1,98.72,155a16.6,16.6,0,0,1,2.33,1.38L140,184.15l42-16.73a4.5,4.5,0,0,1,4.93,1.09l5.66,6a4.51,4.51,0,0,1-.8,6.86L154.15,206a21.89,21.89,0,0,1-21.46,1.38Z"/><path class="cls-7" d="M56.72,136.84a13,13,0,0,1-5.6-1.16c-.78-.34-1.6-.63-2.38-1-6.9-3.05-11.45-11.44-11.61-19.89a30.29,30.29,0,0,1,9.36-22A33.7,33.7,0,0,1,66.93,84c7.95-.69,16.9,1.61,21.34,9.17A8.83,8.83,0,0,1,89.58,100a4.46,4.46,0,0,1-1.09,1.91c-2,2-4,.5-6,.36-2.78-.18-5.28,2.39-6.17,5.4a18.37,18.37,0,0,0,.22,9.39v.06a5.14,5.14,0,0,1-3.87,6.16,4.13,4.13,0,0,1-.69.11c-3.06.28-6.41.45-7.37,0-1.88-.88-4.4-.68-5.5,1.27a7.59,7.59,0,0,0-.69,2.29c-1,5.09-.75,4.79-1.73,9.89Z"/><path class="cls-6" d="M49.77,319.44a10.05,10.05,0,0,0-2.06-14.07,9.43,9.43,0,0,0-1.51-.93L50.8,269l-16.69,8.14-1.81,32.4a10.11,10.11,0,0,0,17.47,9.9Z"/><path class="cls-8" d="M51.69,297.85a4.42,4.42,0,0,1-.94.22L33.9,300.2a4.51,4.51,0,0,1-5-3.9,5.44,5.44,0,0,1,0-.57L29,178.11a14.26,14.26,0,0,1,12.16-14h0a14.19,14.19,0,0,1,16.15,15.41l-4.89,50.69,2.29,63.26A4.47,4.47,0,0,1,51.69,297.85Z"/><path class="cls-9" d="M207,476.68H1a1,1,0,0,1,0-2H207a1,1,0,1,1,0,2Z"/></svg>